<svg xmlns="http://www.w3.org/2000/svg" xmlns:xlink="http://www.w3.org/1999/xlink" width="1640" height="775" viewBox="0 0 1640 775">
  <defs>
    <clipPath id="clip-Classic_Rummy_Logos">
      <rect width="1640" height="775"/>
    </clipPath>
  </defs>
  <g id="Classic_Rummy_Logos" data-name="Classic Rummy Logos" clip-path="url(#clip-Classic_Rummy_Logos)">
    <rect width="1640" height="775"/>
    <g id="CR-Logo-Horizontal" transform="translate(186 -19)">
      <g id="Vector_Smart_Object" data-name="Vector Smart Object" transform="translate(-86.093 264.234)">
        <path id="bg" d="M354.886,241.767V215.424c27.637-44.526,4.439-82.243-30.659-87.624a80.624,80.624,0,0,0-46.277-.7V103.229l4.359-1.31c-3.812,7.69,4.581,14.545,13.074,11.858,7.554-2.391,7.43-14.326,15.786-16.707-8.377-2.707-8.377-14.392-15.766-16.711-8.114-2.546-16.633,2.077-13.094,11.9l-4.359-1.317V77.035c4.627-4.79,14.306-14.72,14.537-14.952C287.166,56.635,273.6,42.766,273.6,42.766c-6.054,6.22-18.885,19.316-18.885,19.316s10.741,11.127,14.52,14.952V90.943l-3.765,1.325c5.025-17.082-18.049-18.075-16.959-3.622-7.869-.764-11.522,3.811-11.546,8.423-.026,4.909,4.059,9.859,11.546,8.466-.02,5.815,5.931,11.8,12.163,9.284,5.114-2.069,6.6-6.865,4.8-12.9l3.765,1.31v23.876s-22.433-7.989-46.277.7c-35.1,5.381-58.3,43.1-30.659,87.624v26.342" fill="#fff"/>
        <path id="bg-shadow" d="M324.227,127.8a78.755,78.755,0,0,0-46.277-.7V103.229l4.359-1.31c-3.812,7.69,4.581,14.545,13.074,11.858,7.554-2.391,7.43-14.326,15.786-16.707-8.377-2.707-8.377-14.392-15.766-16.711-8.114-2.546-16.633,2.077-13.094,11.9l-4.359-1.317V77.035c4.627-4.79,14.306-14.72,14.537-14.952C287.166,56.635,273.6,42.766,273.6,42.766h0v199h81.285V215.424C382.523,170.9,359.325,133.181,324.227,127.8Z" fill="#e7e7e8" opacity="0.61"/>
        <path id="left-red" d="M228.608,133.765c-58.362,20.62-22.152,81.66-22.152,81.66H273.6Z" fill="#e2091b"/>
        <path id="right-red" d="M318.6,133.765c58.361,20.62,22.152,81.66,22.152,81.66H273.6Z" fill="#ae0b1b"/>
        <path id="heart" d="M324.238,127.8c-14.008-13.986-41.082-15.195-50.639,5.724h0c-9.558-20.918-36.632-19.71-50.639-5.724-14.01,12.837-13.7,34.658-3.988,50.019,10.756,17.011,29.817,25.623,44.8,38.166a104.247,104.247,0,0,1,9.83,9.384h0a104.254,104.254,0,0,1,9.83-9.384c14.98-12.543,34.041-21.155,44.8-38.166C337.937,162.459,338.248,140.638,324.238,127.8Z" fill="#fff"/>
        <path id="in-heart" d="M273.6,142.332a25.736,25.736,0,0,1,42.052-11.711c11.694,10.716,11.656,28.608,3.549,41.43-8.979,14.2-24.89,21.389-37.394,31.859a87.078,87.078,0,0,0-8.206,7.833,87.072,87.072,0,0,0-8.206-7.833c-12.5-10.471-28.416-17.659-37.395-31.859-8.107-12.821-8.146-30.714,3.549-41.43A25.736,25.736,0,0,1,273.6,142.332Z" fill="#e2091b"/>
        <path id="in-heart-shadow" d="M315.654,130.621A25.736,25.736,0,0,0,273.6,142.332c-.044-.149-.048,69.359,0,69.411a87.074,87.074,0,0,1,8.206-7.833c12.5-10.471,28.416-17.659,37.394-31.859C327.31,159.229,327.348,141.337,315.654,130.621Z" fill="#ae0b1b"/>
      </g>
      <g id="Vector_Smart_Object-2" data-name="Vector Smart Object" transform="translate(187.637 140.561)">
        <g id="Group_2" data-name="Group 2">
          <path id="Path_1" data-name="Path 1" d="M143.486,261.472c6.379-.09,17.4.158,21.474,2.308-.008,3.936.042,9.7-.811,13.436l-.945.136-.135-.407q-.135-1.221-.27-2.442a10.407,10.407,0,0,0-3.782-6.243,20.019,20.019,0,0,0-6.618-2.714c-16.525-4.037-24.168,5.306-26.2,18.593a24.856,24.856,0,0,0,15.667,27.415c4.315,1.585,12.7,1.894,16.612-.407,3.407-2,3.731-4.9,5.672-8.414a1.676,1.676,0,0,1,.946.407c.033,2.681-.986,10.672-2.3,11.672-3.121,2.382-8.515,1.341-13.371,2.035-9.717,1.391-19.534-3.548-24.58-7.6-11.829-9.5-10.958-32.168.54-41.258a29.867,29.867,0,0,1,11.345-5.564A29.258,29.258,0,0,1,143.486,261.472Z" fill="#fff"/>
          <path id="Path_2" data-name="Path 2" d="M261.527,313.18c-3.359-2.712-5.594-11.017-7.428-15.472-4.89-11.875-9.231-24.772-14.992-36.1l-1.08-.136c-2.753,3.876-4,9.381-5.943,13.979l-10.4,25.379c-2.48,6.073-3.013,13.741-11.615,13.843a34.043,34.043,0,0,0,1.08-9.636l-.811-.136-.27.136c-1.21,6.377-4.03,7.059-11.615,7.057-2.552,0-5.206-.019-6.753-1.086-2.584-1.781-1.891-9.443-1.891-13.707V274.5c0-2.919-.458-7.61.811-9.5.89-1.326,3.6-1.254,5.672-1.357l.27-.814c-1.684-.865-4.8-.273-7.023-.271H174.55l-.135.271v.679c2.02.434,4.8.18,5.807,1.628,1.616,2.316.811,8.6.811,12.215q-.067,13.841-.135,27.686c-.536,3.658-.043,6.49-1.351,8.957-1.093.387-2.909.326-4.187.814-.405.26-.226.023-.405.543v.136c3.067,1.748,12.071-.533,16.477.271,2.956.54,16.79,1.017,18.233-.407.723.9,3.3.544,4.862.543h13.236l.405-.679c-.494-.654-3.805-.88-4.727-1.493-1.059-4.8,3.494-11.4,4.727-15.607,2.221-1.044,9.636-.271,12.7-.272l4.052.136,5.943,15.743c-.429.722-1,.85-1.756,1.221v.543c5.077,1.15,12.847.655,18.368.271l.27-.814C265.576,313.956,263.159,314.5,261.527,313.18Zm-18.1-19-13.506.136-.135-.136q3.377-9.16,6.753-18.322c1.251.84,1.576,3.924,2.161,5.429l4.727,12.758Z" fill="#fff"/>
          <path id="Path_3" data-name="Path 3" d="M285.7,261.472c4.4-.347,9.508-.055,12.425,1.629l-.54,10.857-.27.136-.81-.271c-.516-4.723-2.632-7.652-6.618-8.822-5.939-1.742-12.657,1.874-11.345,8.279.938,4.577,5.157,7.13,8.374,9.5,5.049,3.719,10.125,7.754,12.02,14.657a18,18,0,0,1,0,8.686,16.091,16.091,0,0,1-17.558,10.722c-3.856-.538-9.634.1-11.075-2.714-.961-2.017-.04-10.581.54-12.486l.675-.136.405.407c.018,5.4,2.368,9.278,6.213,10.857,6.346,2.608,12.931-.927,13.911-6.107.69-3.649-1.071-6.624-2.431-8.414-5-6.584-23.423-14.4-17.152-28.365a14.094,14.094,0,0,1,3.242-4.478C278.92,262.427,283.176,261.713,285.7,261.472Z" fill="#fff"/>
          <path id="Path_4" data-name="Path 4" d="M327.569,261.472c4.346-.095,9.916-.175,12.425,1.764,0,2.844.378,8.723-.81,10.857h-.54l-.27-.407c-1.731-4.557-1.666-7.317-6.618-8.686-6.323-1.748-12.732,2.107-11.345,8.55,1.091,5.066,6.551,7.873,10.129,10.586,4.071,3.087,8,6.767,9.859,12.079a13.767,13.767,0,0,1,.945,6.379c-1.362,8.463-7.871,15.613-18.1,14.25-4-.532-9.763.1-11.21-2.85-.655-2.293-.063-11.72,1.08-12.486.345.222.327.167.54.543q.2,1.561.405,3.122c.9,3.639,2.88,6.561,6.213,7.736,6.615,2.332,14.847-1.445,13.641-8.686-1.657-9.945-14.579-13.629-19.043-22.529-2.664-5.31-1.358-13.093,2.431-16.15a19.024,19.024,0,0,1,6.348-3.393Z" fill="#fff"/>
          <path id="Path_5" data-name="Path 5" d="M410.495,261.472c8.014-.1,15.076.388,21.339,2.172l.135.271c-.026,2.847.035,11.446-1.08,13.436h-.135c-.611-.117-.4.016-.675-.407q-.2-1.492-.405-2.986a10.517,10.517,0,0,0-3.647-5.7c-2-1.455-4.461-2.086-7.293-2.714-15.989-3.547-23.492,5.111-25.526,18.186-2.2,14.159,6.443,24.438,15.667,27.822,4.195,1.539,12.392,1.911,16.342-.271,3.64-2.012,3.806-5,5.943-8.55l.811.272c.34,1.78-.21,3.958-.54,5.564-.4,1.956-.29,4.9-1.486,6.107-1.925,1.937-6.394,1.531-9.724,2.036a37.059,37.059,0,0,1-28.227-7.329c-10.946-8.785-11.888-31.43-.541-40.579a31.184,31.184,0,0,1,12.291-6.379Z" fill="#fff"/>
          <path id="Path_6" data-name="Path 6" d="M353.5,262.423l11.075.271c2.368-.346,7.172-.829,9.048.136l-.27.814c-1.646.082-3.907.132-4.727,1.086-1.517,1.763-.946,6.776-.945,9.907v25.786c0,3.4-.546,10.736.81,12.758,1.263,1.881,4.69.791,6.888,1.764v.678l-.27.136-16.207.136c-1.771.265-4.96.2-6.077-.407v-.136c.178-.52,0-.282.405-.543,1.7-.648,3.822.042,4.727-1.357,1.573-2.433.946-8.6.945-12.214V277.216c0-3.546.638-8.353-.4-11.264-1.129-3.153-4.371-1.029-5.672-2.715q-.068-.2-.135-.407l.27-.271Z" fill="#fff"/>
          <path id="Path_7" data-name="Path 7" d="M225.736,331.773c1.845.7,2.895,5.153,3.782,6.922l9.994,20.357h.135l9.454-20.222c.895-2.037,1.8-5.809,3.511-7.057l.405.272q1.216,10.856,2.431,21.714c.5,2.994.019,6.891,1.486,8.957.872,1.229,2.742.932,4.457,1.357v.136l-.135.271c-2.5.259-6.756.322-9.048-.407V363.8c.933-1.386.169-4.645,0-6.786q-.81-8.481-1.621-16.965l-.135.272-11.48,24.157h-.405c-3.192-4.953-5.659-10.7-8.1-16.286l-3.511-7.6h-.27q-.608,7.532-1.216,15.065a24.291,24.291,0,0,0-.406,7.329c.747.911,2,.529,2.971,1.221l-.405.271c-.816.344-8.307.033-8.643-.271v-.136l2.566-.543c2.522-6.833,1.96-16.634,3.241-24.293C225.209,336.742,224.887,333.867,225.736,331.773Z" fill="#fff"/>
          <path id="Path_8" data-name="Path 8" d="M271.251,331.773l.675.272,13.1,27.007h.135l9.724-20.9c.563-1.132,2.552-6.993,3.511-5.972q1.35,11.466,2.7,22.936c.825,4.994-.276,8.89,5.672,8.821l-.27.543a23.682,23.682,0,0,1-8.779-.407V363.8c.744-1.146.4-3.929.135-5.564q-.946-9.092-1.891-18.186v.272l-11.615,24.157h-.27c-2.941-4.467-5.2-9.708-7.428-14.793l-4.187-9.093h-.27q-.608,7.464-1.216,14.929a24.351,24.351,0,0,0-.4,7.465c.747.911,2,.529,2.971,1.221l-.405.271c-.816.345-8.312.026-8.643-.271v-.136c4.77-.885,3.14-4.278,3.916-8.821Q269.832,343.514,271.251,331.773Z" fill="#fff"/>
          <path id="Path_9" data-name="Path 9" d="M182.923,332.452h10.264c-.442.9-1.851.559-2.431,1.357-1.38,1.919-.54,7.888-.54,10.857,0,9.27.02,20.916,10.67,18.864,8.091-1.559,7.969-9.17,7.969-18.864,0-3.57.28-7.762-.405-10.722a4.6,4.6,0,0,0-3.242-.95v-.543h9.319c-.581,1.181-2.382.507-2.836,2.036q-.067,4-.135,8.007c0,11.6-.132,20.079-9.319,22.393a15.339,15.339,0,0,1-5.943,0c-10.192-2.064-9.86-10.434-9.859-22.664,0-2.93.184-6.416-.54-8.55-.7-.307-2.441-.454-3.106-.95Z" fill="#fff"/>
          <path id="Path_10" data-name="Path 10" d="M306.231,332.452h8.643c-.264.652-.607.54-.946,1.086-.551,1.51,1.165,3.228,1.756,4.207l6.483,11.129V348.6c1.541-1.946,7.978-12.659,7.564-15.065l-1.216-.814.135-.272h7.969l-.135.543c-4.008.132-5.425,4.035-7.023,6.65-3.614,5.915-8.541,12.336-5.807,23.343.849.578,2.71.544,3.647,1.221l-.405.271H316.63q.067-.271.135-.543a3.279,3.279,0,0,0,2.3-.679c3.4-11.292-4.023-21.35-8.238-27.143A44.3,44.3,0,0,0,306.231,332.452Z" fill="#fff"/>
          <path id="Path_11" data-name="Path 11" d="M178.331,362.038c-3.135-2.442-7.985-8.671-9.994-12.214,4.259-3.15,7.727-12.25,1.621-16.014-3.636-2.242-11.88-1.467-17.558-1.357l-.135.272,2.971.814c1.061,1.845.676,5.686.675,8.55,0,6.929.535,15.121-.54,21.172a3.279,3.279,0,0,1-2.3.679q-.067.271-.135.543H163.07l.406-.271-2.7-.543c-2.306-1.145-1.429-9.322-1.351-12.757l5.673.136c1.146.676,1.788,2.323,2.566,3.393,4.137,5.687,6.076,11.048,16.612,10.043C184.185,364.308,179.019,362.574,178.331,362.038Zm-11.21-13.029c-1.717,1.09-5.617.5-7.428,0-1.16-2.57-.3-11.3-.27-14.793l1.08-.407c2.9-.072,5.028.163,6.618,1.357C170.479,337.687,170.918,346.6,167.121,349.009Z" fill="#fff"/>
          <path id="Path_12" data-name="Path 12" d="M354.446,349.96q-.135,1.9-.27,3.8h-.27c-.12-5.548-10.316-4.624-11.48,1.493-1.453,7.637,9.605,12.621,11.75,5.972h.135l.135.135-.54,3.122c-6.883,3.2-15.719-2.022-13.236-9.771C342.488,349.034,347.944,349.483,354.446,349.96Z" fill="#fff"/>
          <path id="Path_13" data-name="Path 13" d="M378.621,349.417l.675.271,6.212,12.35h.135c.528-1.866,5.108-11.655,6.213-12.621l.27.135,1.756,14.25c.33.222,2.218.988,2.161,1.086l-4.457-.271v-.136c.763-1.088-.6-8.727-.675-10.857l-.27.135L385.1,364.888l-.54-.407-5.4-10.722q-.337,5.157-.675,10.315c.315.418.707.458,1.351.543v.271c-1.251.044-3.7.3-4.457-.271a3.139,3.139,0,0,0,1.485-.543Z" fill="#fff"/>
          <path id="Path_14" data-name="Path 14" d="M363.63,349.417c-3.316,1.475-5.584,2.271-6.617,5.971-1.721,6.161,3.911,11.033,9.859,9.636C376.043,362.869,375.72,349.072,363.63,349.417Zm2.7,14.928c-5.4,1.059-8.624-5.173-7.023-10.314.841-2.7,2.543-2.921,5.132-3.936C372.667,350.131,373.543,362.931,366.331,364.345Z" fill="#fff"/>
          <path id="Path_15" data-name="Path 15" d="M335.943,362.174l1.351.543v1.221c-.261.56-.491.612-.946.95l-1.35-.543-.135-.271C334.844,362.7,335.149,362.682,335.943,362.174Z" fill="#fff"/>
          <g id="Group_1" data-name="Group 1">
            <path id="Path_16" data-name="Path 16" d="M433.48,235.494h-5.45v-1.055h12.062v1.055h-5.45v14.658H433.48Z" fill="#fff"/>
            <path id="Path_17" data-name="Path 17" d="M443.621,234.439h1.095l6.277,9.293,6.277-9.293h1.094v15.713H457.2V236.5l-6.187,9.046h-.089l-6.187-9.046v13.648h-1.117Z" fill="#fff"/>
          </g>
        </g>
      </g>
    </g>
    <g id="CR-Logo-Vertical" transform="translate(253 -104)">
      <g id="Vector_Smart_Object-3" data-name="Vector Smart Object" transform="translate(716.907 257.234)">
        <path id="bg-2" data-name="bg" d="M354.886,241.767V215.424c27.637-44.526,4.439-82.243-30.659-87.624a80.624,80.624,0,0,0-46.277-.7V103.229l4.359-1.31c-3.812,7.69,4.581,14.545,13.074,11.858,7.554-2.391,7.43-14.326,15.786-16.707-8.377-2.707-8.377-14.392-15.766-16.711-8.114-2.546-16.633,2.077-13.094,11.9l-4.359-1.317V77.035c4.627-4.79,14.306-14.72,14.537-14.952C287.166,56.635,273.6,42.766,273.6,42.766c-6.054,6.22-18.885,19.316-18.885,19.316s10.741,11.127,14.52,14.952V90.943l-3.765,1.325c5.025-17.082-18.049-18.075-16.959-3.622-7.869-.764-11.522,3.811-11.546,8.423-.026,4.909,4.059,9.859,11.546,8.466-.02,5.815,5.931,11.8,12.163,9.284,5.114-2.069,6.6-6.865,4.8-12.9l3.765,1.31v23.876s-22.433-7.989-46.277.7c-35.1,5.381-58.3,43.1-30.659,87.624v26.342" fill="#fff"/>
        <path id="bg-shadow-2" data-name="bg-shadow" d="M324.227,127.8a78.755,78.755,0,0,0-46.277-.7V103.229l4.359-1.31c-3.812,7.69,4.581,14.545,13.074,11.858,7.554-2.391,7.43-14.326,15.786-16.707-8.377-2.707-8.377-14.392-15.766-16.711-8.114-2.546-16.633,2.077-13.094,11.9l-4.359-1.317V77.035c4.627-4.79,14.306-14.72,14.537-14.952C287.166,56.635,273.6,42.766,273.6,42.766h0v199h81.285V215.424C382.523,170.9,359.325,133.181,324.227,127.8Z" fill="#e7e7e8" opacity="0.61"/>
        <path id="left-red-2" data-name="left-red" d="M228.608,133.765c-58.362,20.62-22.152,81.66-22.152,81.66H273.6Z" fill="#e2091b"/>
        <path id="right-red-2" data-name="right-red" d="M318.6,133.765c58.361,20.62,22.152,81.66,22.152,81.66H273.6Z" fill="#ae0b1b"/>
        <path id="heart-2" data-name="heart" d="M324.238,127.8c-14.008-13.986-41.082-15.195-50.639,5.724h0c-9.558-20.918-36.632-19.71-50.639-5.724-14.01,12.837-13.7,34.658-3.988,50.019,10.756,17.011,29.817,25.623,44.8,38.166a104.247,104.247,0,0,1,9.83,9.384h0a104.254,104.254,0,0,1,9.83-9.384c14.98-12.543,34.041-21.155,44.8-38.166C337.937,162.459,338.248,140.638,324.238,127.8Z" fill="#fff"/>
        <path id="in-heart-2" data-name="in-heart" d="M273.6,142.332a25.736,25.736,0,0,1,42.052-11.711c11.694,10.716,11.656,28.608,3.549,41.43-8.979,14.2-24.89,21.389-37.394,31.859a87.078,87.078,0,0,0-8.206,7.833,87.072,87.072,0,0,0-8.206-7.833c-12.5-10.471-28.416-17.659-37.395-31.859-8.107-12.821-8.146-30.714,3.549-41.43A25.736,25.736,0,0,1,273.6,142.332Z" fill="#e2091b"/>
        <path id="in-heart-shadow-2" data-name="in-heart-shadow" d="M315.654,130.621A25.736,25.736,0,0,0,273.6,142.332c-.044-.149-.048,69.359,0,69.411a87.074,87.074,0,0,1,8.206-7.833c12.5-10.471,28.416-17.659,37.394-31.859C327.31,159.229,327.348,141.337,315.654,130.621Z" fill="#ae0b1b"/>
      </g>
      <g id="Vector_Smart_Object-4" data-name="Vector Smart Object" transform="translate(702.637 255.561)">
        <g id="Group_4" data-name="Group 4">
          <path id="Path_18" data-name="Path 18" d="M143.486,261.472c6.379-.09,17.4.158,21.474,2.308-.008,3.936.042,9.7-.811,13.436l-.945.136-.135-.407q-.135-1.221-.27-2.442a10.407,10.407,0,0,0-3.782-6.243,20.019,20.019,0,0,0-6.618-2.714c-16.525-4.037-24.168,5.306-26.2,18.593a24.856,24.856,0,0,0,15.667,27.415c4.315,1.585,12.7,1.894,16.612-.407,3.407-2,3.731-4.9,5.672-8.414a1.676,1.676,0,0,1,.946.407c.033,2.681-.986,10.672-2.3,11.672-3.121,2.382-8.515,1.341-13.371,2.035-9.717,1.391-19.534-3.548-24.58-7.6-11.829-9.5-10.958-32.168.54-41.258a29.867,29.867,0,0,1,11.345-5.564A29.258,29.258,0,0,1,143.486,261.472Z" fill="#fff"/>
          <path id="Path_19" data-name="Path 19" d="M261.527,313.18c-3.359-2.712-5.594-11.017-7.428-15.472-4.89-11.875-9.231-24.772-14.992-36.1l-1.08-.136c-2.753,3.876-4,9.381-5.943,13.979l-10.4,25.379c-2.48,6.073-3.013,13.741-11.615,13.843a34.043,34.043,0,0,0,1.08-9.636l-.811-.136-.27.136c-1.21,6.377-4.03,7.059-11.615,7.057-2.552,0-5.206-.019-6.753-1.086-2.584-1.781-1.891-9.443-1.891-13.707V274.5c0-2.919-.458-7.61.811-9.5.89-1.326,3.6-1.254,5.672-1.357l.27-.814c-1.684-.865-4.8-.273-7.023-.271H174.55l-.135.271v.679c2.02.434,4.8.18,5.807,1.628,1.616,2.316.811,8.6.811,12.215q-.067,13.841-.135,27.686c-.536,3.658-.043,6.49-1.351,8.957-1.093.387-2.909.326-4.187.814-.405.26-.226.023-.405.543v.136c3.067,1.748,12.071-.533,16.477.271,2.956.54,16.79,1.017,18.233-.407.723.9,3.3.544,4.862.543h13.236l.405-.679c-.494-.654-3.805-.88-4.727-1.493-1.059-4.8,3.494-11.4,4.727-15.607,2.221-1.044,9.636-.271,12.7-.272l4.052.136,5.943,15.743c-.429.722-1,.85-1.756,1.221v.543c5.077,1.15,12.847.655,18.368.271l.27-.814C265.576,313.956,263.159,314.5,261.527,313.18Zm-18.1-19-13.506.136-.135-.136q3.377-9.16,6.753-18.322c1.251.84,1.576,3.924,2.161,5.429l4.727,12.758Z" fill="#fff"/>
          <path id="Path_20" data-name="Path 20" d="M285.7,261.472c4.4-.347,9.508-.055,12.425,1.629l-.54,10.857-.27.136-.81-.271c-.516-4.723-2.632-7.652-6.618-8.822-5.939-1.742-12.657,1.874-11.345,8.279.938,4.577,5.157,7.13,8.374,9.5,5.049,3.719,10.125,7.754,12.02,14.657a18,18,0,0,1,0,8.686,16.091,16.091,0,0,1-17.558,10.722c-3.856-.538-9.634.1-11.075-2.714-.961-2.017-.04-10.581.54-12.486l.675-.136.405.407c.018,5.4,2.368,9.278,6.213,10.857,6.346,2.608,12.931-.927,13.911-6.107.69-3.649-1.071-6.624-2.431-8.414-5-6.584-23.423-14.4-17.152-28.365a14.094,14.094,0,0,1,3.242-4.478C278.92,262.427,283.176,261.713,285.7,261.472Z" fill="#fff"/>
          <path id="Path_21" data-name="Path 21" d="M327.569,261.472c4.346-.095,9.916-.175,12.425,1.764,0,2.844.378,8.723-.81,10.857h-.54l-.27-.407c-1.731-4.557-1.666-7.317-6.618-8.686-6.323-1.748-12.732,2.107-11.345,8.55,1.091,5.066,6.551,7.873,10.129,10.586,4.071,3.087,8,6.767,9.859,12.079a13.767,13.767,0,0,1,.945,6.379c-1.362,8.463-7.871,15.613-18.1,14.25-4-.532-9.763.1-11.21-2.85-.655-2.293-.063-11.72,1.08-12.486.345.222.327.167.54.543q.2,1.561.405,3.122c.9,3.639,2.88,6.561,6.213,7.736,6.615,2.332,14.847-1.445,13.641-8.686-1.657-9.945-14.579-13.629-19.043-22.529-2.664-5.31-1.358-13.093,2.431-16.15a19.024,19.024,0,0,1,6.348-3.393Z" fill="#fff"/>
          <path id="Path_22" data-name="Path 22" d="M410.495,261.472c8.014-.1,15.076.388,21.339,2.172l.135.271c-.026,2.847.035,11.446-1.08,13.436h-.135c-.611-.117-.4.016-.675-.407q-.2-1.492-.405-2.986a10.517,10.517,0,0,0-3.647-5.7c-2-1.455-4.461-2.086-7.293-2.714-15.989-3.547-23.492,5.111-25.526,18.186-2.2,14.159,6.443,24.438,15.667,27.822,4.195,1.539,12.392,1.911,16.342-.271,3.64-2.012,3.806-5,5.943-8.55l.811.272c.34,1.78-.21,3.958-.54,5.564-.4,1.956-.29,4.9-1.486,6.107-1.925,1.937-6.394,1.531-9.724,2.036a37.059,37.059,0,0,1-28.227-7.329c-10.946-8.785-11.888-31.43-.541-40.579a31.184,31.184,0,0,1,12.291-6.379Z" fill="#fff"/>
          <path id="Path_23" data-name="Path 23" d="M353.5,262.423l11.075.271c2.368-.346,7.172-.829,9.048.136l-.27.814c-1.646.082-3.907.132-4.727,1.086-1.517,1.763-.946,6.776-.945,9.907v25.786c0,3.4-.546,10.736.81,12.758,1.263,1.881,4.69.791,6.888,1.764v.678l-.27.136-16.207.136c-1.771.265-4.96.2-6.077-.407v-.136c.178-.52,0-.282.405-.543,1.7-.648,3.822.042,4.727-1.357,1.573-2.433.946-8.6.945-12.214V277.216c0-3.546.638-8.353-.4-11.264-1.129-3.153-4.371-1.029-5.672-2.715q-.068-.2-.135-.407l.27-.271Z" fill="#fff"/>
          <path id="Path_24" data-name="Path 24" d="M225.736,331.773c1.845.7,2.895,5.153,3.782,6.922l9.994,20.357h.135l9.454-20.222c.895-2.037,1.8-5.809,3.511-7.057l.405.272q1.216,10.856,2.431,21.714c.5,2.994.019,6.891,1.486,8.957.872,1.229,2.742.932,4.457,1.357v.136l-.135.271c-2.5.259-6.756.322-9.048-.407V363.8c.933-1.386.169-4.645,0-6.786q-.81-8.481-1.621-16.965l-.135.272-11.48,24.157h-.405c-3.192-4.953-5.659-10.7-8.1-16.286l-3.511-7.6h-.27q-.608,7.532-1.216,15.065a24.291,24.291,0,0,0-.406,7.329c.747.911,2,.529,2.971,1.221l-.405.271c-.816.344-8.307.033-8.643-.271v-.136l2.566-.543c2.522-6.833,1.96-16.634,3.241-24.293C225.209,336.742,224.887,333.867,225.736,331.773Z" fill="#fff"/>
          <path id="Path_25" data-name="Path 25" d="M271.251,331.773l.675.272,13.1,27.007h.135l9.724-20.9c.563-1.132,2.552-6.993,3.511-5.972q1.35,11.466,2.7,22.936c.825,4.994-.276,8.89,5.672,8.821l-.27.543a23.682,23.682,0,0,1-8.779-.407V363.8c.744-1.146.4-3.929.135-5.564q-.946-9.092-1.891-18.186v.272l-11.615,24.157h-.27c-2.941-4.467-5.2-9.708-7.428-14.793l-4.187-9.093h-.27q-.608,7.464-1.216,14.929a24.351,24.351,0,0,0-.4,7.465c.747.911,2,.529,2.971,1.221l-.405.271c-.816.345-8.312.026-8.643-.271v-.136c4.77-.885,3.14-4.278,3.916-8.821Q269.832,343.514,271.251,331.773Z" fill="#fff"/>
          <path id="Path_26" data-name="Path 26" d="M182.923,332.452h10.264c-.442.9-1.851.559-2.431,1.357-1.38,1.919-.54,7.888-.54,10.857,0,9.27.02,20.916,10.67,18.864,8.091-1.559,7.969-9.17,7.969-18.864,0-3.57.28-7.762-.405-10.722a4.6,4.6,0,0,0-3.242-.95v-.543h9.319c-.581,1.181-2.382.507-2.836,2.036q-.067,4-.135,8.007c0,11.6-.132,20.079-9.319,22.393a15.339,15.339,0,0,1-5.943,0c-10.192-2.064-9.86-10.434-9.859-22.664,0-2.93.184-6.416-.54-8.55-.7-.307-2.441-.454-3.106-.95Z" fill="#fff"/>
          <path id="Path_27" data-name="Path 27" d="M306.231,332.452h8.643c-.264.652-.607.54-.946,1.086-.551,1.51,1.165,3.228,1.756,4.207l6.483,11.129V348.6c1.541-1.946,7.978-12.659,7.564-15.065l-1.216-.814.135-.272h7.969l-.135.543c-4.008.132-5.425,4.035-7.023,6.65-3.614,5.915-8.541,12.336-5.807,23.343.849.578,2.71.544,3.647,1.221l-.405.271H316.63q.067-.271.135-.543a3.279,3.279,0,0,0,2.3-.679c3.4-11.292-4.023-21.35-8.238-27.143A44.3,44.3,0,0,0,306.231,332.452Z" fill="#fff"/>
          <path id="Path_28" data-name="Path 28" d="M178.331,362.038c-3.135-2.442-7.985-8.671-9.994-12.214,4.259-3.15,7.727-12.25,1.621-16.014-3.636-2.242-11.88-1.467-17.558-1.357l-.135.272,2.971.814c1.061,1.845.676,5.686.675,8.55,0,6.929.535,15.121-.54,21.172a3.279,3.279,0,0,1-2.3.679q-.067.271-.135.543H163.07l.406-.271-2.7-.543c-2.306-1.145-1.429-9.322-1.351-12.757l5.673.136c1.146.676,1.788,2.323,2.566,3.393,4.137,5.687,6.076,11.048,16.612,10.043C184.185,364.308,179.019,362.574,178.331,362.038Zm-11.21-13.029c-1.717,1.09-5.617.5-7.428,0-1.16-2.57-.3-11.3-.27-14.793l1.08-.407c2.9-.072,5.028.163,6.618,1.357C170.479,337.687,170.918,346.6,167.121,349.009Z" fill="#fff"/>
          <path id="Path_29" data-name="Path 29" d="M354.446,349.96q-.135,1.9-.27,3.8h-.27c-.12-5.548-10.316-4.624-11.48,1.493-1.453,7.637,9.605,12.621,11.75,5.972h.135l.135.135-.54,3.122c-6.883,3.2-15.719-2.022-13.236-9.771C342.488,349.034,347.944,349.483,354.446,349.96Z" fill="#fff"/>
          <path id="Path_30" data-name="Path 30" d="M378.621,349.417l.675.271,6.212,12.35h.135c.528-1.866,5.108-11.655,6.213-12.621l.27.135,1.756,14.25c.33.222,2.218.988,2.161,1.086l-4.457-.271v-.136c.763-1.088-.6-8.727-.675-10.857l-.27.135L385.1,364.888l-.54-.407-5.4-10.722q-.337,5.157-.675,10.315c.315.418.707.458,1.351.543v.271c-1.251.044-3.7.3-4.457-.271a3.139,3.139,0,0,0,1.485-.543Z" fill="#fff"/>
          <path id="Path_31" data-name="Path 31" d="M363.63,349.417c-3.316,1.475-5.584,2.271-6.617,5.971-1.721,6.161,3.911,11.033,9.859,9.636C376.043,362.869,375.72,349.072,363.63,349.417Zm2.7,14.928c-5.4,1.059-8.624-5.173-7.023-10.314.841-2.7,2.543-2.921,5.132-3.936C372.667,350.131,373.543,362.931,366.331,364.345Z" fill="#fff"/>
          <path id="Path_32" data-name="Path 32" d="M335.943,362.174l1.351.543v1.221c-.261.56-.491.612-.946.95l-1.35-.543-.135-.271C334.844,362.7,335.149,362.682,335.943,362.174Z" fill="#fff"/>
          <g id="Group_3" data-name="Group 3">
            <path id="Path_33" data-name="Path 33" d="M433.48,235.494h-5.45v-1.055h12.062v1.055h-5.45v14.658H433.48Z" fill="#fff"/>
            <path id="Path_34" data-name="Path 34" d="M443.621,234.439h1.095l6.277,9.293,6.277-9.293h1.094v15.713H457.2V236.5l-6.187,9.046h-.089l-6.187-9.046v13.648h-1.117Z" fill="#fff"/>
          </g>
        </g>
      </g>
    </g>
  </g>
</svg>
