<?xml version="1.0" standalone="no"?>
<!DOCTYPE svg PUBLIC "-//W3C//DTD SVG 20010904//EN"
 "http://www.w3.org/TR/2001/REC-SVG-20010904/DTD/svg10.dtd">
<svg version="1.0" xmlns="http://www.w3.org/2000/svg"
 width="2090.000000pt" height="540.000000pt" viewBox="0 0 2090.000000 540.000000"
 preserveAspectRatio="xMidYMid meet">

<g transform="translate(0.000000,540.000000) scale(0.100000,-0.100000)"
fill="#13374f" stroke="none">
<path d="M3441 4154 l-31 -26 0 -224 0 -225 26 -24 27 -25 352 0 c341 0 353 1
379 21 l26 20 0 230 0 230 -25 24 -24 25 -350 0 -349 0 -31 -26z"/>
<path d="M1755 4079 c-409 -50 -640 -229 -733 -568 l-27 -96 -3 -1147 -3
-1146 27 -21 c26 -20 36 -21 381 -21 l354 0 24 25 25 24 0 571 0 570 508 0
509 0 24 26 c24 25 24 27 27 262 3 259 0 294 -29 323 -18 18 -37 19 -530 19
l-511 0 4 193 c3 209 9 232 61 271 28 20 42 21 500 26 260 3 473 7 474 8 45
46 43 28 43 323 l0 278 -25 19 c-30 24 -49 28 -245 47 -186 19 -742 28 -855
14z"/>
<path d="M8085 4084 c-22 -2 -107 -8 -190 -15 -270 -20 -382 -49 -426 -111
-50 -70 -49 -33 -49 -1388 0 -1407 -3 -1336 65 -1405 41 -40 125 -69 250 -84
304 -39 869 -48 1081 -18 436 61 710 218 838 480 54 111 73 186 87 336 27 281
-52 501 -234 660 -26 22 -55 44 -65 50 -9 5 -15 11 -12 13 3 2 29 22 58 43 94
70 170 185 214 325 21 68 23 93 22 255 -1 152 -4 193 -22 260 -38 139 -84 219
-182 317 -75 74 -102 93 -191 137 -159 77 -315 116 -558 141 -91 9 -581 12
-686 4z m656 -674 c26 -6 71 -26 100 -43 74 -45 93 -85 97 -211 5 -118 -11
-168 -68 -220 -67 -60 -112 -68 -397 -74 l-253 -4 0 287 0 287 238 -5 c130 -3
258 -10 283 -17z m19 -1116 c83 -25 134 -65 167 -131 24 -51 28 -69 28 -148 0
-103 -14 -152 -58 -201 -72 -83 -162 -104 -454 -104 l-223 0 0 300 0 300 243
0 c194 0 254 -3 297 -16z"/>
<path d="M10239 3940 c-138 -25 -253 -127 -296 -265 -9 -27 -13 -108 -13 -245
0 -191 2 -209 24 -261 44 -109 133 -191 245 -226 46 -15 91 -18 251 -18 l195
0 65 31 c78 37 150 99 182 157 45 79 50 118 46 347 -3 211 -3 216 -30 271 -38
77 -127 159 -203 189 -53 20 -80 23 -240 26 -99 2 -201 -1 -226 -6z m431 -75
c72 -24 147 -94 182 -170 21 -47 23 -63 23 -250 0 -132 -4 -214 -12 -241 -25
-81 -112 -168 -200 -200 -27 -9 -94 -13 -225 -14 -161 0 -195 3 -238 19 -104
40 -179 129 -199 237 -14 75 -14 304 0 379 13 74 31 109 78 158 81 86 153 104
387 96 98 -3 190 -10 204 -14z"/>
<path d="M11935 3869 c-327 -58 -311 -54 -341 -84 -24 -24 -24 -27 -24 -200
l0 -175 -144 0 c-139 0 -146 -1 -173 -24 l-28 -24 -3 -195 -3 -195 28 -32 c25
-28 43 -35 153 -60 69 -16 135 -32 148 -35 l22 -5 0 -578 c0 -575 5 -684 36
-807 52 -204 189 -339 395 -390 101 -26 369 -31 509 -11 63 9 130 21 147 27
60 19 63 31 63 267 0 213 0 213 -25 237 -23 24 -29 25 -154 25 -151 0 -177 8
-191 59 -6 22 -10 257 -10 604 l0 567 164 0 c160 0 166 1 193 24 l28 24 0 235
c0 309 16 287 -217 287 l-168 0 0 233 c0 231 0 234 -23 255 -33 31 -66 28
-382 -29z"/>
<path d="M14555 3737 c-3 -7 -4 -149 -3 -317 l3 -305 373 -3 372 -2 -2 -718
-3 -717 -472 -3 -473 -2 0 -315 0 -315 1380 0 1380 0 0 315 0 315 -467 2 -468
3 -5 1035 -5 1035 -803 3 c-640 2 -804 0 -807 -11z m1505 -1131 c0 -953 1
-1034 17 -1040 9 -4 218 -6 466 -6 247 1 451 -1 454 -3 3 -3 6 -298 3 -397 0
-7 -424 -9 -1267 -8 l-1268 3 -3 203 c-2 158 0 202 10 202 7 0 216 0 463 0
248 0 456 4 463 8 10 7 12 180 10 833 l-3 824 -370 5 -370 5 -3 190 c-1 104 0
195 2 202 4 10 145 13 701 13 l695 0 0 -1034z"/>
<path d="M18225 3653 c-282 -41 -541 -246 -653 -516 -60 -143 -62 -170 -62
-787 0 -617 2 -644 62 -787 106 -257 341 -452 610 -507 115 -24 1161 -24 1276
0 269 55 504 250 610 507 60 143 62 170 62 787 0 473 -2 573 -16 638 -53 259
-233 485 -478 597 -153 71 -127 69 -786 71 -327 1 -608 0 -625 -3z m1240 -156
c33 -9 98 -36 145 -59 68 -33 102 -58 170 -127 94 -95 142 -174 182 -301 l23
-75 0 -585 0 -585 -23 -75 c-40 -128 -88 -206 -182 -300 -94 -94 -172 -142
-300 -182 l-75 -23 -585 0 -585 0 -75 23 c-128 40 -206 88 -300 182 -94 94
-142 172 -182 300 l-23 75 0 585 0 585 23 75 c40 128 88 206 182 300 110 111
230 174 378 200 26 4 299 7 607 6 496 -2 567 -4 620 -19z"/>
<path d="M5905 3429 c-133 -20 -238 -62 -358 -142 l-67 -45 0 55 c0 47 -4 59
-29 84 l-29 29 -307 0 -306 0 -24 -25 -25 -24 0 -1111 0 -1112 29 -29 29 -29
325 0 c179 0 333 3 342 6 45 18 45 16 45 849 l0 786 48 20 c98 42 191 62 277
57 104 -5 155 -32 187 -97 l23 -46 5 -755 c5 -793 5 -786 50 -810 11 -6 143
-10 348 -10 l329 0 24 26 24 26 0 776 c0 834 -3 893 -52 1062 -68 235 -214
387 -428 446 -71 19 -365 28 -460 13z"/>
<path d="M3461 3384 l-31 -26 0 -1110 0 -1110 29 -29 29 -29 328 0 328 0 28
27 28 27 0 1113 0 1114 -26 24 -27 25 -328 0 -327 0 -31 -26z"/>
<path d="M9974 2637 c-2 -7 -3 -89 -2 -182 l3 -170 218 -3 217 -2 0 -415 0
-415 -275 0 -275 0 0 -185 0 -185 800 0 800 0 0 185 0 185 -275 0 -275 0 0
600 0 600 -465 0 c-370 0 -467 -3 -471 -13z m878 -649 l3 -603 273 -3 273 -2
-3 -118 -3 -117 -735 0 -735 0 -3 117 -3 118 278 2 c153 2 277 6 276 11 -2 4
-3 221 -3 482 l0 475 -215 0 -215 0 0 120 0 120 405 0 405 0 2 -602z"/>
<path d="M13260 1793 c-8 -3 -25 -15 -37 -26 -23 -20 -23 -22 -23 -329 l0
-309 25 -24 24 -25 323 0 c238 1 327 4 339 13 36 28 39 50 39 351 l0 295 -24
28 -24 28 -314 2 c-172 1 -320 -1 -328 -4z"/>
</g>
</svg>
